<?xml version="1.0" encoding="UTF-8"?> <svg xmlns="http://www.w3.org/2000/svg" xmlns:xlink="http://www.w3.org/1999/xlink" version="1.1" id="Layer_1" x="0px" y="0px" viewBox="0 0 165.9 98.2" style="enable-background:new 0 0 165.9 98.2;" xml:space="preserve"> <style type="text/css"> .st0{fill:#B0BC22;} .st1{fill:#E58E1A;} .st2{fill:#E09A24;} .st3{fill:#3E7145;} .st4{fill:#54301A;} .st5{fill:#004712;} </style> <path class="st0" d="M117.4,9.2c-1.1,1.3-3,1.5-4.3,0.4c-0.1-0.1-0.2-0.2-0.3-0.3c1.8,5.9,4.6,12.3,7.4,17.8c-0.5-2-0.1-4.2,1.3-6 c2.4-2.9,6.7-3.3,9.5-0.9c0.2,0.2,0.4,0.3,0.5,0.5l0,0c-2.1-3.6-4.6-6.5-7.4-9.1c0.1,0.1,0.1,0.2,0.2,0.3c0,0,0,0,0,0 c1.3,1.8,1.3,4.3-0.2,6c-1.7,2-4.6,2.3-6.7,0.8c0,0-0.1-0.1-0.1-0.1l-0.1-0.1c-1-0.9-1.6-2.1-1.8-3.4c-0.1-1.3,0.3-2.6,1.1-3.6 c0.8-1,2-1.6,3.1-1.7c1.2-0.2,2.5,0.1,3.6,0.9c-1.8-1.6-3.6-3.2-5.5-4.8C118.3,7,118.2,8.3,117.4,9.2z"></path> <path class="st1" d="M112.1,6.6c0.1-0.5,0.3-0.9,0.6-1.3c0.8-0.9,2-1.3,3.1-1c-1.5-1.3-3.1-2.7-4.6-4.2C111,0,111,0.1,111,0.2 c0,0,0-0.1,0-0.1C111.6,2.8,111.6,4.3,112.1,6.6z"></path> <path class="st2" d="M131.9,29.7c-2.3,2.8-6.5,3.2-9.3,0.9c0,0,0,0-0.1-0.1c0.1,0.1,0.1,0.3,0.2,0.4c-0.1-0.1-0.2-0.2-0.3-0.3 c-0.1-0.1-0.2-0.2-0.3-0.3c1.6,2.4,3.9,5.2,6.3,7.9c-0.9-1.7-0.7-3.8,0.6-5.4c1.8-2.1,4.9-2.4,7-0.6c0.4,0.4,0.8,0.8,1.1,1.3 c-1.1-3.5-2.5-7-3.8-9.7C133.7,25.7,133.3,27.9,131.9,29.7z"></path> <path class="st0" d="M136.5,39.1c-1.6,1.9-4.4,2.3-6.4,1c1.8,2,3.6,3.8,4.9,5.2c-0.4-0.7-0.3-1.6,0.2-2.3c0.7-0.9,2.1-1,2.9-0.3 c0.2,0.2,0.4,0.5,0.5,0.7c0-2.3-0.5-4.9-1.1-7.5C137.6,37.1,137.3,38.2,136.5,39.1z"></path> <path class="st3" d="M154.2,63.4c-1.4-3.6-5.7-4.7-8.6-7.1c2,6,1.8,12.1,6,15.1c-0.1,0.2-0.2,0.5-0.3,0.8c-0.3,0.6-0.7,1.2-1.1,1.8 c-1.9,2.7-5,5.3-8.5,6c-0.2,0.2-0.4,0.4-0.7,0.6c-0.8,0.8-1.6,1.4-2.4,1.7c7.5-0.7,10.7-3.7,13.1-7.1c0.5-0.7,0.9-1.4,1.2-2.1 c0.2-0.5,0.4-1,0.6-1.4c5.4-1.8,6-8.4,9.6-14C159.5,60,156.7,60.7,154.2,63.4z"></path> <path class="st1" d="M17.4,57.4c-1.4,0-2.7,0.2-3.9,0.6c-1.2,0.4-1.8,0.9-1.8,1.3c0,0.2,0.3,0.7,0.9,1.4c0.6,0.8,0.9,1.7,0.9,2.7 c0,1-0.1,2.5-0.2,4.5c-0.1,2-0.2,3.1-0.2,3.3c0,0.4-0.4,0.7-1.1,1c-0.7,0.3-1.5,0.4-2.3,0.4c-1.1,0-1.7-0.2-1.7-0.6 c0-0.1,0-1.1,0-2.9c0-1.9,0-3.3,0-4.3c0-1.1,0.1-2.2,0.3-3.3c0.2-1.1,0.3-1.7,0.3-2c0-0.5-0.6-0.8-1.9-0.8c-1.4,0-2.9,0.2-4.4,0.7 c-1.6,0.5-2.4,1-2.4,1.4c0,0.3,0.2,0.6,0.5,1c0.4,0.4,0.6,0.7,0.6,0.9c0.2,0.5,0.4,2.7,0.8,6.7c0.3,4,0.5,6.7,0.5,8.1 c0,1.4,0.5,2.5,1.4,3.5c0.9,0.8,1.9,1.3,3,1.3c0.5,0,0.8-0.1,0.9-0.4c0.2-0.2,0.3-0.7,0.3-1.4c0-0.5,0-1.1,0-1.6c0-0.6,0-1.1,0-1.7 c0-0.5,0.4-0.9,1.3-1.2c0.7-0.2,1.5-0.4,2.5-0.4c1,0,1.4,0.2,1.4,0.7c0,1.5,0.3,2.9,1,4.1c0.7,1.3,1.6,1.9,2.6,1.9 c0.5,0,0.8-0.1,0.9-0.4c0.2-0.2,0.3-0.7,0.3-1.4c0-1.8,0.4-4.6,1.2-8.3c0.8-3.7,1.2-6.7,1.2-9.2C20.2,59.4,19.3,57.4,17.4,57.4z"></path> <path class="st4" d="M123.6,11c0.2,0.2,0.4,0.4,0.5,0.5C123.9,11.3,123.8,11.1,123.6,11z"></path> <polygon class="st4" points="124.4,11.9 124.4,11.9 124.4,11.9 "></polygon> <path class="st4" d="M138.8,43.6c-0.1-0.3-0.3-0.6-0.6-0.8c-0.9-0.7-2.2-0.6-2.9,0.3c-0.6,0.7-0.6,1.6-0.2,2.4 c0.1,0.2,0.3,0.4,0.5,0.6c0.9,0.7,2.2,0.6,2.9-0.3C139,45.1,139.1,44.3,138.8,43.6z"></path> <path class="st5" d="M124.2,17.9c1.5-1.8,1.5-4.3,0.2-6c-2.1-1.5-5-1.2-6.7,0.8c-1.5,1.8-1.5,4.3-0.2,6 C119.6,20.3,122.5,19.9,124.2,17.9z"></path> <path class="st4" d="M117.7,12.7c1.7-2,4.6-2.3,6.7-0.8c0,0,0,0,0,0c-0.1-0.1-0.2-0.2-0.3-0.4c-0.2-0.2-0.3-0.4-0.5-0.5c0,0,0,0,0,0 c-1.1-0.9-2.5-1.3-3.8-1.1c-1.2,0.2-2.3,0.7-3.1,1.7c-0.9,1-1.2,2.4-1.1,3.6c0.1,1.3,0.7,2.5,1.8,3.4l0.1,0.1c0,0,0.1,0.1,0.1,0.1 C116.2,17,116.2,14.5,117.7,12.7z"></path> <path class="st4" d="M117.9,6L117.9,6L117.9,6c0-0.1,0-0.1-0.1-0.2c-0.2-0.4-0.4-0.7-0.8-1c-0.3-0.3-0.7-0.5-1-0.6 c-0.1,0-0.1,0-0.2,0c-1.1-0.3-2.3,0.1-3.1,1c-0.3,0.4-0.5,0.9-0.6,1.3c-0.1,0.3-0.1,0.7,0,1.1c0,0.3,0.1,0.5,0.2,0.8 c0.1,0.3,0.3,0.6,0.5,0.8c0.1,0.1,0.2,0.2,0.3,0.3c1.3,1.1,3.2,0.9,4.3-0.4C118.2,8.3,118.3,7,117.9,6z"></path> <path class="st4" d="M131.6,20.7C131.6,20.7,131.6,20.7,131.6,20.7c-0.2-0.2-0.3-0.4-0.5-0.5c-2.9-2.4-7.1-2-9.5,0.9 c-1.4,1.7-1.8,3.9-1.3,6c0.2,0.8,0.5,1.6,1,2.3c0.1,0.2,0.2,0.3,0.4,0.5c0.1,0.2,0.3,0.3,0.5,0.5c0.1,0.1,0.2,0.2,0.3,0.3 c0.1,0.1,0.2,0.2,0.3,0.3c-0.1-0.1-0.2-0.3-0.2-0.4c-0.2-0.3-0.3-0.5-0.4-0.8c-0.1-0.3-0.2-0.6-0.3-0.9c-0.6-2.1-0.3-4.4,1.2-6.3 c2.1-2.5,5.5-3.1,8.3-1.7c0.2,0.1,0.4,0.2,0.6,0.3c0,0,0.1,0,0.1,0c0.1,0.1,0.2,0.1,0.2,0.2C132,21.2,131.8,21,131.6,20.7z"></path> <path class="st1" d="M156.9,23.1L156.9,23.1C157,23.1,156.9,23.1,156.9,23.1C156.9,23.1,156.9,23.1,156.9,23.1z"></path> <path class="st4" d="M157.1,23.1c-0.1-0.3-0.2-0.6-0.4-0.9c-1.4-2.5-4.6-3.5-7.1-2.1c-1.8,1-2.8,2.9-2.7,4.9c0,0.6,0.2,1.2,0.4,1.7 c0.1,0.2,0.1,0.4,0.2,0.5c0.1,0.1,0.1,0.2,0.2,0.3c-0.2-0.7-0.2-1.4-0.1-2.1c0.2-1.5,1.2-3,2.6-3.8c2.3-1.3,5.1-0.6,6.7,1.5 c0,0,0,0,0,0c0.1,0.1,0.1,0.2,0.2,0.3C157.1,23.3,157.1,23.2,157.1,23.1z"></path> <path class="st1" d="M147.3,38.7c0.4,2.9,1.4,6.7,2.5,10.3c0-0.2,0-0.5,0-0.7c0,0,0,0,0,0c0.1-0.6,0.2-1.3,0.6-1.8 c0-0.1,0.1-0.1,0.1-0.2c0.1-0.1,0.2-0.2,0.2-0.4c0.1-0.1,0.2-0.2,0.2-0.3c0.1-0.1,0.2-0.2,0.2-0.3c0.1-0.1,0.3-0.2,0.4-0.3 c0.1-0.1,0.1-0.1,0.2-0.2c0.2-0.2,0.5-0.3,0.7-0.4c2.4-1.1,5.3-0.1,6.5,2.3c0.1,0.2,0.2,0.5,0.3,0.7c0.1,0.2,0.1,0.4,0.1,0.6 c0,0.1,0,0.1,0,0.2c0.1,0.5,0,1,0,1.4c0,0,0,0,0,0c0.6-3.9,0.9-7.9,0.9-11.3c0,0,0,0,0,0.1c-0.1,0.4-0.2,0.8-0.3,1.2 c0,0.1,0,0.1-0.1,0.2c-0.1,0.1-0.1,0.3-0.2,0.4c0,0.1-0.1,0.2-0.2,0.3c-0.1,0.1-0.1,0.2-0.2,0.4c-0.1,0.1-0.1,0.2-0.2,0.3 c-0.1,0.1-0.2,0.2-0.2,0.3c-0.1,0.1-0.2,0.2-0.3,0.3c-0.1,0.1-0.2,0.2-0.2,0.2c-0.1,0.1-0.3,0.2-0.4,0.3c-0.1,0.1-0.1,0.1-0.2,0.2 c-0.2,0.2-0.5,0.3-0.7,0.4c-3.2,1.7-7.2,0.6-8.9-2.6c0,0,0,0,0,0c0-0.1-0.1-0.1-0.1-0.2C147.6,39.7,147.4,39.2,147.3,38.7z"></path> <path class="st0" d="M159.3,49.7c-0.1,0.4-0.2,0.7-0.3,1c0,0,0,0,0,0c0,0.1-0.1,0.2-0.2,0.3c0,0.1-0.1,0.1-0.1,0.2 c0,0.1-0.1,0.2-0.2,0.2c0,0.1-0.1,0.1-0.1,0.2c-0.1,0.1-0.2,0.3-0.4,0.4c0,0,0,0,0,0c-0.4,0.4-0.9,0.8-1.4,1 c-0.3,0.1-0.6,0.2-0.9,0.3c-0.1,0-0.2,0-0.4,0.1c-0.2,0-0.4,0.1-0.5,0.1c-0.2,0-0.3,0-0.5,0c-0.1,0-0.3,0-0.4,0 c-0.2,0-0.4-0.1-0.6-0.1c-0.1,0-0.2,0-0.2-0.1c-0.2-0.1-0.4-0.2-0.6-0.3c0,0-0.1,0-0.1-0.1c-0.2-0.1-0.4-0.3-0.7-0.4c0,0,0,0-0.1,0 c-0.2-0.2-0.4-0.4-0.6-0.6c0,0,0,0,0,0c-0.2-0.2-0.4-0.4-0.5-0.7c0,0,0,0,0,0c1.6,4.9,3.2,9.2,3.7,10.1c-0.2-0.4-0.6-0.8-0.9-1.2 l1.2,1.8l0.9-0.9c0,0-0.1,0.1-0.1,0.1C157.3,58.5,158.6,54.2,159.3,49.7z"></path> <path class="st0" d="M147,36.6c0,0,0,0.1,0,0.1c0.1-2.2,1.3-4.4,3.4-5.5c3.2-1.7,7.2-0.6,8.9,2.6c0,0,0,0.1,0.1,0.1c0,0,0,0,0,0.1 c0.3,0.5,0.5,1,0.6,1.5c-0.3-4.6-1.4-8.7-3-12.5l0,0c0,0.1,0.1,0.2,0.1,0.3c-0.1-0.1-0.1-0.2-0.2-0.3l0,0c1.1,2.4,0.1,5.3-2.2,6.6 c-2.5,1.4-5.6,0.4-7-2.1c-0.2-0.3-0.3-0.7-0.4-1c-0.2-0.4-0.3-0.9-0.3-1.3C146.8,29.2,146.8,33,147,36.6z"></path> <path class="st0" d="M149.8,7.2c0,0,0.1-0.1,0.1-0.1C149.8,7.1,149.8,7.2,149.8,7.2z"></path> <path class="st0" d="M148.4,13.1c0.1-0.1,0.2-0.2,0.2-0.3c0.1-0.1,0.1-0.1,0.2-0.2c0.2-0.1,0.3-0.3,0.5-0.3c0.4-0.2,0.8-0.3,1.2-0.3 c0.7,0,1.3,0.2,1.9,0.6c-0.7-1.6-1.4-3.3-2.1-5c-0.1-0.2-0.2-0.3-0.2-0.3c-0.1-0.2-0.2-0.3-0.2-0.3c-0.7,2.8-1.3,4.1-1.8,6.5 C148.2,13.4,148.3,13.3,148.4,13.1z"></path> <path class="st1" d="M149.6,20.1c2.5-1.4,5.7-0.4,7.1,2.1c0.2,0.3,0.3,0.6,0.4,0.9l0,0c-1-2.6-2.2-5.2-3.5-7.8c-0.1,1-0.7,2-1.7,2.5 c-1.5,0.7-3.3,0.1-4-1.4c-0.1-0.2-0.2-0.4-0.2-0.7c0,0,0,0,0,0c-0.3,2.5-0.6,5.1-0.7,7.7C147.4,22,148.3,20.8,149.6,20.1z"></path> <path class="st5" d="M6.3,86.3c-1.1,0-2,0.4-2.7,1.2c0-0.3,0-0.6-0.1-0.8l0-0.2H3.3H2.3v11.7h0.2h1v-4.5c0.7,0.7,1.6,1.1,2.7,1.1 c1.1,0,2.1-0.4,2.8-1.2c0.7-0.8,1.1-1.9,1.1-3c0-1.2-0.4-2.2-1.1-3C8.4,86.7,7.4,86.3,6.3,86.3z M8.3,92.8L8.3,92.8 c-0.5,0.6-1.1,0.9-2,0.9c-0.8,0-1.5-0.3-2-0.9l0,0c-0.5-0.6-0.8-1.3-0.8-2.2c0-0.9,0.3-1.6,0.8-2.2c0.5-0.6,1.1-0.9,2-0.9 c0.8,0,1.4,0.3,2,0.9C8.7,89,9,89.7,9,90.6C9,91.5,8.7,92.2,8.3,92.8z"></path> <path class="st5" d="M14.8,86.9c-0.3,0.2-0.6,0.5-0.9,0.8c0-0.3,0-0.6-0.1-1l0-0.2h-0.2h-0.9v8.2h0.2h1v-4.1c0-0.9,0.3-1.6,0.8-2.2 c0.5-0.6,1.1-0.9,1.9-0.9h0.2v-0.2v-0.7v-0.2h-0.2C16,86.3,15.3,86.5,14.8,86.9z"></path> <path class="st5" d="M22.3,86.3c-1.2,0-2.2,0.4-3,1.2c-0.8,0.8-1.2,1.9-1.2,3c0,1.2,0.4,2.2,1.2,3c0.8,0.8,1.8,1.2,3,1.2 c1.2,0,2.2-0.4,3-1.2c0.8-0.8,1.2-1.9,1.2-3c0-1.2-0.4-2.2-1.2-3C24.5,86.7,23.5,86.3,22.3,86.3z M24.4,92.8 c-0.5,0.6-1.2,0.9-2.1,0.9c-0.9,0-1.5-0.3-2.1-0.9c-0.5-0.6-0.8-1.3-0.8-2.2c0-0.9,0.3-1.6,0.8-2.2c0.5-0.6,1.2-0.9,2.1-0.9 c0.9,0,1.5,0.3,2.1,0.9c0.5,0.6,0.8,1.3,0.8,2.2C25.2,91.5,24.9,92.2,24.4,92.8z"></path> <path class="st5" d="M35.1,82.5v4.9c-0.7-0.7-1.6-1.1-2.7-1.1c-1.1,0-2.1,0.4-2.8,1.2c-0.7,0.8-1.1,1.8-1.1,3c0,1.2,0.4,2.2,1.1,3 c0.7,0.8,1.7,1.3,2.8,1.3c1.1,0,2-0.4,2.7-1.2c0,0.3,0,0.6,0.1,0.8l0,0.2h0.2h0.9V82.8v-0.2h-0.2H35.1z M34.4,92.8 c-0.5,0.6-1.1,0.9-2,0.9c-0.8,0-1.4-0.3-1.9-0.9c-0.5-0.6-0.7-1.3-0.8-2.2c0-0.9,0.3-1.6,0.7-2.2c0.5-0.6,1.1-0.9,1.9-0.9 c0.8,0,1.5,0.3,2,0.9c0.5,0.6,0.8,1.3,0.8,2.2C35.2,91.5,34.9,92.2,34.4,92.8z"></path> <path class="st5" d="M44.5,86.5v4.8c0,0.7-0.2,1.3-0.5,1.7c-0.4,0.5-0.9,0.7-1.6,0.7c-0.7,0-1.2-0.2-1.6-0.7c-0.3-0.4-0.5-1-0.5-1.7 v-4.8H40h-1v4.9c0,0.9,0.3,1.8,0.9,2.4c0.6,0.7,1.5,1,2.5,1c1,0,1.9-0.3,2.5-1l0,0c0.6-0.7,0.9-1.5,0.9-2.4v-4.7v-0.2h-0.2H44.5z"></path> <path class="st5" d="M55,93.3l-0.1-0.2l-0.2,0.1c-1,0.3-1.7,0.5-2.3,0.5c-1,0-1.7-0.3-2.2-0.9c-0.5-0.6-0.8-1.3-0.8-2.2 c0-0.9,0.3-1.6,0.8-2.1c0.6-0.6,1.3-0.9,2.3-0.9c0.6,0,1.3,0.2,2.3,0.5l0.2,0.1l0.1-0.2l0.3-0.9l-0.2-0.1c-0.9-0.4-1.8-0.5-2.7-0.5 c-1.3,0-2.4,0.4-3.2,1.3l0,0c-0.8,0.8-1.1,1.8-1.1,3c0,1.2,0.4,2.2,1.1,3h0c0,0,0,0,0,0l0,0c0.8,0.9,1.9,1.3,3.2,1.3 c0.9,0,1.8-0.2,2.7-0.5l0.2-0.1L55.3,94L55,93.3z"></path> <path class="st5" d="M61,86.3c-1.1,0-2.1,0.4-2.8,1.3c-0.7,0.8-1.1,1.9-1.1,3c0,1.2,0.4,2.2,1.1,3c0.8,0.8,1.8,1.3,3.1,1.3 c0.8,0,1.6-0.2,2.6-0.5l0.2-0.1l0-0.2l-0.2-1l-0.3,0.1c-0.9,0.3-1.6,0.4-2.3,0.4c-0.9,0-1.6-0.3-2.2-0.9l0,0 c-0.5-0.5-0.7-1.1-0.7-1.9H65v-0.2c0-1.2-0.4-2.3-1.1-3.1C63.1,86.7,62.2,86.3,61,86.3z M58.5,89.7c0.1-0.6,0.4-1.1,0.8-1.5 c0.5-0.4,1-0.7,1.7-0.7c0.7,0,1.3,0.2,1.7,0.7c0.4,0.4,0.7,0.9,0.8,1.5H58.5z"></path> <path class="st5" d="M79.3,93.3l-0.1-0.2L79,93.2c-1,0.3-1.7,0.5-2.3,0.5c-1,0-1.7-0.3-2.2-0.9c-0.5-0.6-0.8-1.3-0.8-2.2 c0-0.9,0.3-1.6,0.8-2.1c0.6-0.6,1.3-0.9,2.3-0.9c0.6,0,1.3,0.2,2.3,0.5l0.2,0.1l0.1-0.2l0.3-0.9l-0.2-0.1c-0.9-0.4-1.8-0.5-2.7-0.5 c-1.3,0-2.4,0.4-3.2,1.3c-0.8,0.8-1.1,1.8-1.1,3c0,1.2,0.4,2.2,1.1,3h0l0,0c0,0,0,0,0,0c0.8,0.9,1.9,1.3,3.2,1.3 c0.9,0,1.8-0.2,2.7-0.5l0.2-0.1L79.6,94L79.3,93.3z"></path> <path class="st5" d="M85.5,86.3c-1.2,0-2.2,0.4-3,1.2c-0.8,0.8-1.2,1.9-1.2,3c0,1.2,0.4,2.2,1.2,3c0.8,0.8,1.8,1.2,3,1.2 c1.2,0,2.2-0.4,3-1.2c0.8-0.8,1.2-1.9,1.2-3c0-1.2-0.4-2.2-1.2-3C87.8,86.7,86.7,86.3,85.5,86.3z M87.6,92.8 c-0.5,0.6-1.2,0.9-2.1,0.9c-0.9,0-1.5-0.3-2.1-0.9c-0.5-0.6-0.8-1.3-0.8-2.2c0-0.9,0.3-1.6,0.8-2.2c0.5-0.6,1.2-0.9,2.1-0.9 c0.9,0,1.5,0.3,2.1,0.9c0.5,0.6,0.8,1.3,0.8,2.2C88.4,91.5,88.2,92.2,87.6,92.8z"></path> <path class="st5" d="M102.7,87.3c-0.6-0.7-1.4-1-2.3-1c-1.1,0-2,0.5-2.6,1.3c-0.6-0.9-1.5-1.3-2.6-1.3c-0.9,0-1.7,0.3-2.3,1 C92.3,88,92,88.8,92,89.8v4.9h0.2h1v-4.8c0-0.7,0.2-1.3,0.5-1.7c0.4-0.5,0.8-0.7,1.5-0.7c0.6,0,1.1,0.2,1.5,0.7 c0.3,0.4,0.5,0.9,0.5,1.5v5h0.2h1v-5c0-0.6,0.2-1.1,0.5-1.5c0.4-0.5,0.8-0.7,1.4-0.7c0.7,0,1.1,0.2,1.4,0.7c0.3,0.4,0.5,1,0.5,1.7 v4.8h0.2h1v-4.9C103.5,88.8,103.2,88,102.7,87.3L102.7,87.3z"></path> <path class="st5" d="M110,86.3c-1.1,0-2,0.4-2.7,1.2c0-0.3,0-0.6-0.1-0.8l0-0.2H107h-0.9v11.7h0.2h1v-4.5c0.7,0.8,1.6,1.1,2.7,1.1 c1.1,0,2.1-0.4,2.8-1.2c0.7-0.8,1.1-1.9,1.1-3c0-1.2-0.4-2.2-1.1-3C112.1,86.7,111.2,86.3,110,86.3z M112,92.8 c-0.5,0.6-1.1,0.9-2,0.9c-0.8,0-1.5-0.3-2-0.9l0,0c-0.5-0.6-0.8-1.3-0.8-2.2c0-0.9,0.3-1.6,0.8-2.2c0.5-0.6,1.1-0.9,2-0.9 c0.8,0,1.4,0.3,2,0.9c0.5,0.6,0.7,1.3,0.7,2.2C112.7,91.5,112.5,92.2,112,92.8z"></path> <path class="st5" d="M122.7,86.5v1c-0.7-0.7-1.6-1.1-2.7-1.1c-1.1,0-2.1,0.4-2.9,1.2c-0.7,0.8-1.1,1.8-1.1,3c0,1.2,0.4,2.2,1.1,3 c0.7,0.8,1.7,1.3,2.9,1.2c1.1,0,2-0.4,2.7-1.2c0,0.3,0,0.6,0.1,0.8l0,0.2h0.2h0.9v-8v-0.2h-0.2H122.7z M121.9,92.8L121.9,92.8 c-0.5,0.6-1.1,0.9-2,0.9c-0.8,0-1.4-0.3-2-0.9c-0.5-0.6-0.7-1.3-0.7-2.2c0-0.9,0.2-1.6,0.7-2.2c0.5-0.6,1.1-0.9,1.9-0.9 c0.8,0,1.5,0.3,2,0.9c0.5,0.6,0.8,1.3,0.8,2.2C122.7,91.5,122.4,92.2,121.9,92.8z"></path> <path class="st5" d="M130.2,86.3c-1,0-1.9,0.4-2.5,1.2c0-0.3-0.1-0.6-0.1-0.8l0-0.2h-0.2h-0.9v8.2h0.2h1v-4.1c0-0.9,0.2-1.6,0.7-2.2 c0.5-0.6,1.1-0.9,1.8-0.9c0.6,0,1,0.2,1.3,0.5c0.3,0.3,0.4,0.8,0.4,1.6v5.1h0.2h1v-5.3c0-0.9-0.3-1.7-0.8-2.3 C131.8,86.6,131.1,86.3,130.2,86.3z"></path> <polygon class="st5" points="140.9,86.5 140.8,86.5 138.4,93 136,86.5 135.8,86.5 134.6,86.5 137.6,94.7 137.7,94.7 136.5,98.2 136.8,98.2 137.8,98.2 142.1,86.5 141.7,86.5 "></polygon> <path class="st5" d="M150.3,21.6c-1.5,0.8-2.4,2.2-2.6,3.8c-0.1,0.7-0.1,1.4,0.1,2.1c-0.1-0.1-0.1-0.2-0.2-0.3 c-0.1-0.2-0.1-0.3-0.2-0.5c0.1,0.4,0.2,0.7,0.4,1c1.4,2.5,4.5,3.4,7,2.1c2.4-1.3,3.3-4.2,2.2-6.6c0,0,0,0,0,0 C155.4,21,152.6,20.3,150.3,21.6z"></path> <path class="st4" d="M159.4,34c0,0,0-0.1-0.1-0.1c-1.7-3.2-5.7-4.4-8.9-2.6c-2.6,1.4-3.8,4.3-3.3,7c0.1,0.7,0.3,1.3,0.7,1.9 c0,0.1,0.1,0.1,0.1,0.2c0,0.1,0.1,0.1,0.1,0.2c-0.2-0.7-0.2-1.5-0.2-2.2c0.2-2.1,1.4-4.1,3.4-5.2c3.1-1.7,6.9-0.6,8.7,2.3 C159.8,34.9,159.7,34.4,159.4,34z"></path> <path class="st5" d="M150.1,7c0.1,0.2,0.2,0.5,0.3,0.7c0.7,1.7,1.4,3.4,2.1,5c-0.5-0.4-1.2-0.6-1.9-0.6c-0.4,0-0.8,0.1-1.2,0.3 c-0.2,0.1-0.4,0.2-0.5,0.3c-0.1,0-0.1,0.1-0.2,0.2c-0.1,0.1-0.2,0.2-0.2,0.3c-0.1,0.1-0.2,0.3-0.3,0.5v0c0.5-2.4,1.2-3.7,1.8-6.5 c0,0,0,0,0-0.1c0,0,0,0-0.1,0.1c0,0-0.1,0.1-0.1,0.1c-5,5.8-7.5,13.5-8.2,22c-2.6-8.8-10.2-20-30.4-29.2c0,0,0,0,0,0 c1.5,1.5,3.1,2.9,4.6,4.2c0.1,0,0.1,0,0.2,0c0.4,0.1,0.7,0.3,1,0.6c0.3,0.3,0.6,0.6,0.8,1c0,0.1,0,0.1,0.1,0.2 c1.9,1.6,3.7,3.1,5.5,4.8c0.3,0.3,0.6,0.5,0.9,0.8c2.7,2.6,5.3,5.5,7.4,9.1c0,0,0,0,0,0c0.2,0.2,0.4,0.5,0.6,0.7 c-0.1-0.1-0.2-0.1-0.2-0.2c0,0-0.1,0-0.1,0c-0.2-0.1-0.4-0.2-0.6-0.3c-2.8-1.4-6.2-0.8-8.3,1.7c-1.5,1.8-1.9,4.2-1.2,6.3 c0.1,0.3,0.2,0.6,0.3,0.9c0.1,0.3,0.3,0.5,0.4,0.8c0,0,0,0,0.1,0.1c2.8,2.3,7,2,9.3-0.9c1.4-1.7,1.8-4,1.3-6 c1.3,2.8,2.7,6.2,3.8,9.7v0c-0.3-0.5-0.6-0.9-1.1-1.3c-2.1-1.8-5.2-1.5-7,0.6c-1.3,1.6-1.5,3.7-0.6,5.4c-2.4-2.7-4.7-5.5-6.3-7.9 c-0.2-0.2-0.3-0.3-0.5-0.5c-0.1-0.2-0.2-0.3-0.4-0.5c-0.5-0.7-0.8-1.5-1-2.3v0c-2.8-5.5-5.6-11.9-7.4-17.8c-0.2-0.3-0.4-0.5-0.5-0.8 c-0.1-0.2-0.2-0.5-0.2-0.8c0-0.3,0-0.7,0-1.1c0,0,0,0,0,0c-0.5-2.3-0.5-3.7-1-6.5c0,0,0,0.1,0,0.1c-2.9,9.9-0.3,21.2,5.4,31.9 c5.7,10.8,9.9,12.5,11.4,13.5c1,0.7,7,0.2,9.9,2.3c-0.4-0.3-1.4-1.2-2.6-2.4c-1.4-1.4-3.1-3.2-4.9-5.2c2.1,1.3,4.8,0.9,6.4-1 c0.8-0.9,1.1-2.1,1.1-3.2v0c0.7,2.6,1.1,5.2,1.1,7.5c0,1.3-0.1,2.5-0.3,3.6c0.7-1.4,2.3-3.6,3.3-5c0.1,0.5,0.1,1,0.2,1.5 c0.7-0.9,1.5-1.9,2.2-3.1c-0.5,3.8,0,7.6-0.3,10.8c0.9,2.2,1.8,3.3,2.3,4c0.6,0.9,4.8,2.6,7.1,5c0.4,0.4,0.7,0.8,0.9,1.2 c-0.5-0.9-2.1-5.2-3.7-10.1c0,0,0,0,0,0c0.2,0.2,0.3,0.5,0.5,0.7c0,0,0,0,0,0c0.2,0.2,0.4,0.4,0.6,0.6c0,0,0,0,0.1,0 c0.2,0.2,0.4,0.3,0.7,0.4c0,0,0.1,0,0.1,0.1c0.2,0.1,0.4,0.2,0.6,0.3c0.1,0,0.2,0,0.2,0.1c0.2,0,0.4,0.1,0.6,0.1c0.1,0,0.3,0,0.4,0 c0.2,0,0.3,0,0.5,0c0.2,0,0.4,0,0.5-0.1c0.1,0,0.2,0,0.4-0.1c0.3-0.1,0.6-0.2,0.9-0.3c0.5-0.3,1-0.6,1.4-1c0,0,0,0,0,0 c0.1-0.1,0.2-0.3,0.4-0.4c0.1-0.1,0.1-0.1,0.1-0.2c0.1-0.1,0.1-0.2,0.2-0.2c0-0.1,0.1-0.1,0.1-0.2c0.1-0.1,0.1-0.2,0.2-0.3 c0,0,0,0,0,0c0.1-0.3,0.2-0.7,0.3-1c0,0,0,0,0,0c-0.8,4.5-2.1,8.8-4.1,11.5c0,0,0.1-0.1,0.1-0.1c1.7-1.4,5.5-3.3,6.1-3.6 C165.5,51,172.8,33.2,150.1,7z M159.3,49.6C159.3,49.6,159.3,49.6,159.3,49.6c0.1-0.5,0.1-1,0-1.5c0-0.1,0-0.1,0-0.2 c0-0.2-0.1-0.4-0.1-0.6c-0.1-0.2-0.2-0.5-0.3-0.7c-1.2-2.4-4-3.4-6.5-2.3c-0.3,0.1-0.5,0.3-0.7,0.4c-0.1,0.1-0.1,0.1-0.2,0.2 c-0.1,0.1-0.3,0.2-0.4,0.3c-0.1,0.1-0.2,0.2-0.2,0.3c-0.1,0.1-0.2,0.2-0.2,0.3c-0.1,0.1-0.2,0.2-0.2,0.4c0,0.1-0.1,0.1-0.1,0.2 c-0.3,0.6-0.5,1.2-0.6,1.8c0,0,0,0,0,0c0,0.2,0,0.5,0,0.7c-1.1-3.6-2.1-7.4-2.5-10.3c-0.1-0.7-0.2-1.4-0.2-2c0,0,0-0.1,0-0.1 c-0.2-3.6-0.2-7.4-0.1-11.3c0-0.6,0.1-1.3,0.1-1.9c0.1-2.6,0.4-5.3,0.7-7.7v0c0,0.2,0.1,0.4,0.2,0.7c0.7,1.5,2.5,2.1,4,1.4 c1-0.5,1.6-1.5,1.7-2.5c1.2,2.6,2.4,5.2,3.5,7.8c1.5,3.9,2.6,7.9,3,12.5c-0.1-0.5-0.3-1-0.6-1.5c0,0,0,0,0-0.1 c0.2,0.4,0.4,0.9,0.5,1.4c-1.8-2.9-5.6-3.9-8.7-2.3c-2,1.1-3.2,3.1-3.4,5.2c-0.1,0.7,0,1.5,0.2,2.2c0-0.1-0.1-0.1-0.1-0.2 c0,0,0,0,0,0c1.7,3.2,5.7,4.4,8.9,2.6c0.2-0.1,0.5-0.3,0.7-0.4c0.1-0.1,0.1-0.1,0.2-0.2c0.1-0.1,0.3-0.2,0.4-0.3 c0.1-0.1,0.2-0.2,0.2-0.2c0.1-0.1,0.2-0.2,0.3-0.3c0.1-0.1,0.2-0.2,0.2-0.3c0.1-0.1,0.2-0.2,0.2-0.3c0.1-0.1,0.2-0.2,0.2-0.4 c0.1-0.1,0.1-0.2,0.2-0.3c0.1-0.1,0.1-0.3,0.2-0.4c0-0.1,0-0.1,0.1-0.2c0.1-0.4,0.3-0.8,0.3-1.2c0,0,0,0,0-0.1 C160.2,41.7,160,45.8,159.3,49.6z"></path> <path class="st1" d="M141.3,57.2c1.7-1.6,2.4-3.7,2.6-5.9c0.3-3.2-0.2-6.9,0.3-10.8c-0.8,1.2-1.5,2.2-2.2,3.1 c-1.5,1.9-2.7,3.5-3.5,5.9c-2.7-2.7-7.2-1.9-10.8-2.9c4.3,4.7,6.4,10.2,11.5,11.2c3.4,1.7,5,7.2,4.7,12c-0.3,1.9-0.9,3.8-1.6,5.4 c-0.6,1.4-1.3,2.5-1.7,3.3c-0.5,0.6-0.9,0.9-1.3,0.9c-1,0-1.4-1.3-1.4-3.9c0-5.6,0.3-10.4,1-14.5c0.2-1.2,0.3-1.7,0.3-1.7 c0-0.5-0.2-0.8-0.6-1c-0.3-0.1-0.8-0.2-1.6-0.2c-1.3,0-2.6,0.2-3.9,0.7c-1.3,0.5-1.9,1-1.9,1.5c0,0.3,0.1,0.6,0.4,1 c0.4,0.4,0.6,0.7,0.6,0.9c0.1,0.3,0.1,2.2,0.1,5.6c-0.3-0.2-0.7-0.3-1.1-0.3c-2,0-3.7,0.6-5,1.9c-1.5,1.5-2.3,3.7-2.3,6.6 c0,0.6,0.1,1.2,0.1,1.7c-0.5,0.8-1,1.4-1.2,1.7c-0.6,0.7-1.2,1-1.9,1c-0.7,0-1-0.6-1-1.7c0-1.6,0.3-3.3,0.8-5.1 c0.5-1.8,0.8-2.7,0.8-2.7c0-0.6-0.4-1.3-1.3-2.2c-0.9-0.8-1.7-1.3-2.5-1.3c-0.5,0-1.3,0.6-2.4,1.9c-1.1,1.3-2,2.5-2.7,3.7 c0-0.8,0.2-1.7,0.3-2.8c0.1-0.9,0.2-1.7,0.2-2.3c0-0.5-0.7-0.8-2-0.8c-1.3,0-2.6,0.2-4,0.7c-1.3,0.5-2,1-2,1.5c0,0.3,0.2,0.6,0.5,1 c0.4,0.4,0.6,0.7,0.6,0.9c0.2,0.7,0.3,1.9,0.4,3.8c-0.4,1-0.9,1.8-1.4,2.6c-1.2,1.9-2.3,2.9-3.2,2.9c-0.7,0-1-0.7-1-2 c0-1.5,0.2-3,0.5-4.5c0.2-0.9,0.5-2,1-3.1c0.3-0.9,0.5-1.5,0.5-1.6c0-0.4,0-0.6-0.1-0.7c-0.1-0.1-0.3-0.2-0.7-0.2 c-1.2,0-2.4,0.4-3.8,1.1c0-0.5-0.3-1-0.8-1.5c-0.6-0.6-1.4-0.8-2.5-0.8c-2,0-3.6,0.7-4.7,2.1c-1.2,1.5-1.8,3.8-1.8,6.8 c0,0.5,0,1,0.1,1.5c-0.9,1.4-1.8,2.1-2.8,2.1c-0.7,0-1.3-0.6-1.7-1.8c-0.4-1.2-0.6-2.6-0.7-4.4c1.5-0.8,2.8-2.5,3.8-5.1 c0.8-2.1,1.3-4.1,1.3-5.8c0-3-1.1-4.5-3.4-4.5c-1.8,0-3.4,1.3-4.9,4c-1.7,3-2.5,6.7-2.5,11.1c0,1.3,0.1,2.5,0.3,3.5 c-0.2,0.5-0.4,0.8-0.6,1c-1.2,1.9-2.4,2.9-3.5,2.9c-0.9,0-1.3-0.8-1.3-2.4c0-2,0.1-4.2,0.4-6.6c0.3-2.3,0.6-3.8,0.9-4.6 c0.7,0,1.3,0,1.8,0.1c0.1,0,0.3,0.1,0.6,0.2c0.3,0.1,0.5,0.1,0.6,0.1c0.2,0,0.4-0.1,0.7-0.3c0.3-0.2,0.4-0.4,0.4-0.7 c0-0.7-1.1-1.1-3.4-1.1l-0.4,0c0.5-2.4,0.8-3.8,0.8-4.1c0-0.3-0.2-0.5-0.5-0.7c-0.3-0.2-0.8-0.3-1.3-0.3c-1.4,0-2.8,0.2-4.2,0.7 c-1.5,0.5-2.2,1-2.2,1.4c0,0.3,0.1,0.6,0.4,0.9c0.2,0.3,0.4,0.7,0.4,1c0,0.2,0,0.5-0.1,1l0,0.3c-1.8-0.1-3.3-0.4-4.5-0.8 c-0.5-0.2-0.8-0.2-0.9-0.2c-0.3,0-0.4,0.2-0.4,0.6c0,0.5,0.2,0.9,0.5,1.3c0.3,0.4,0.7,0.7,1,0.9c0.7,0.3,1.7,0.4,2.9,0.4 c0.4,0,0.8,0,1.2,0c-0.1,0.6-0.1,2.1-0.1,4.4c0,1,0,1.9,0.1,2.8c-0.4,0.8-1,1.7-1.7,2.8c-1.2,1.9-2.4,2.9-3.3,2.9 c-0.9,0-1.4-0.7-1.4-2.1c0-1.4,0.3-2.9,0.9-4.6c0.6-1.7,0.9-2.6,0.9-2.7c0-0.6-0.4-1.4-1.1-2.3c-0.8-0.9-1.3-1.4-1.7-1.4 c-0.2,0-0.6,0.1-1,0.3c-0.4,0.2-0.8,0.3-1,0.3c-0.9,0-1.4-0.2-1.4-0.7c0,0,0-0.1,0-0.2s0-0.2,0-0.2c0-1-0.2-1.5-0.8-1.5 c-0.7,0-1.5,0.4-2.4,1.2C52.4,67.4,52,68.2,52,69c0,0.9,0.6,1.6,1.9,2.1c-0.8,2.3-1.4,4-2,5.1c-0.1,0.1-0.1,0.2-0.1,0.3 c-0.2,0.4-0.5,0.8-0.7,1.2c-1.3,1.9-2.3,2.9-3.2,2.9c-0.7,0-1-0.7-1-2c0-1.5,0.2-3,0.5-4.5c0.2-0.9,0.5-2,1-3.1 c0.3-0.9,0.5-1.5,0.5-1.6c0-0.4,0-0.6-0.1-0.7c-0.1-0.1-0.3-0.2-0.7-0.2c-1.2,0-2.4,0.4-3.8,1.1c0-0.5-0.3-1-0.8-1.5 c-0.6-0.6-1.4-0.8-2.5-0.8c-2,0-3.6,0.7-4.7,2.1c-1.2,1.5-1.8,3.8-1.8,6.8c0,0.6,0,1.1,0.1,1.5c-0.6,0.9-1.3,1.6-2.1,2.2 c-1,0.7-1.9,1.1-2.8,1.1c-1.9,0-3-1.5-3.2-4.5c0.5,0.4,1.1,0.5,1.8,0.5c1.1,0,2-0.7,2.8-2.1c0.7-1.3,1.1-2.7,1.1-4.2 c0-1.1-0.4-1.9-1.3-2.5c-0.9-0.6-2.1-0.9-3.5-0.9c-1.5,0-2.9,0.7-4.2,2.1c-1.5,1.6-2.2,3.7-2.2,6.2c0,2.3,0.8,4.1,2.3,5.3 c1.4,1.1,3.2,1.6,5.6,1.6c2.7,0,4.8-0.9,6.4-2.8c0.2,0.3,0.3,0.7,0.6,0.9c0.8,1.1,2.1,1.7,3.8,1.7c1.9,0,3.1-0.8,3.6-2.4 c0.8,1.6,2.1,2.4,3.9,2.4c1.3,0,2.4-0.3,3.2-1c0.6-0.5,1.3-1.3,2-2.4c0.4-0.6,0.7-1.2,1-1.8c0.3-0.6,0.8-1.6,1.3-3 c0.5-1.3,0.8-2.2,1-2.7c0.3,0.2,0.7,0.3,1,0.3c-0.7,1.3-1.1,2.8-1.1,4.5c0,2,0.6,3.6,1.7,4.7c1,1,2.3,1.4,3.9,1.4 c2.4,0,4.3-1.2,5.9-3.5c0.4-0.6,0.7-1.1,1-1.6c0.8,3.4,2.4,5.1,4.9,5.1c1.4,0,2.7-0.3,3.7-1c0.7-0.5,1.4-1.2,2.2-2.3 c0.1-0.1,0.1-0.2,0.2-0.4c0.3,0.7,0.7,1.3,1.1,1.8c1.2,1.3,2.6,1.9,4.4,1.9c1.7,0,3.4-0.9,4.9-2.7c0.2,0.4,0.3,0.7,0.6,1 c0.8,1.1,2.1,1.7,3.8,1.7c1.9,0,3.1-0.8,3.6-2.4c0.8,1.6,2.1,2.4,3.9,2.4c1.3,0,2.4-0.3,3.2-1c0.6-0.5,1.3-1.3,2-2.4 c0.1-0.2,0.3-0.4,0.4-0.6c0,0.1,0,0.2,0,0.3c0,0.7,0.1,1.2,0.4,1.6c0.5,0.5,1.1,1,2,1.3c0.9,0.4,1.7,0.6,2.5,0.6 c0.5,0,0.8-0.1,0.9-0.4c0.2-0.2,0.3-0.7,0.3-1.4c0-4.1,0.8-7,2.5-8.8c0.1-0.1,0.2-0.2,0.3-0.1c0.1,0,0.1,0.1,0.1,0.2 c-0.1,0.3-0.3,1-0.5,2c-0.2,1.2-0.3,2.2-0.3,3c0,3.8,1.6,5.7,4.8,5.7c1.4,0,2.6-0.3,3.4-1c0.3-0.3,0.8-0.8,1.4-1.6 c0.1,0.3,0.3,0.6,0.5,0.8c0.8,1.1,2.1,1.7,3.8,1.7c1,0,1.9-0.2,2.6-0.7c0.7-0.5,1.2-1.1,1.4-1.9c1,1.8,2.5,2.7,4.5,2.7 c0.4,0,0.8-0.1,1.2-0.2c0.8-0.3,1.6-0.8,2.4-1.7c0.2-0.2,0.4-0.4,0.7-0.6c3.2-3,4-8.3,4.1-10.1c0,0,0-0.1,0-0.1 C146.1,66.2,145.6,61.7,141.3,57.2z M27.6,70.8c0.6-0.8,1.2-1.1,1.8-1.1c0.6,0,1,0.4,1,1.2c0,1-0.2,2-0.7,3 c-0.5,1.1-1.1,1.6-1.8,1.6c-0.5,0-1-0.3-1.5-1C26.5,72.9,26.9,71.7,27.6,70.8z M42.5,73.9c-0.1,1.3-0.2,2.2-0.2,2.9 c0,0.7-0.1,1.4-0.3,2.1c-0.3,0.9-0.7,1.4-1.3,1.4c-1,0-1.4-1.4-1.4-4.3c0-1.9,0.3-3.5,0.8-4.9c0.5-1.3,1-1.9,1.6-1.9 c0.7,0,1.1,0.7,1.1,2C42.8,71.7,42.7,72.7,42.5,73.9z M83.5,71.4c0-2.8,0.3-5.2,1-7.4c0.6-2,1.2-3,1.8-3c0.4,0,0.6,0.3,0.6,0.8 c0,1.6-0.3,3.3-0.8,5.1c-0.6,2.2-1.5,3.8-2.7,4.8V71.4z M96.7,73.9c-0.1,1.3-0.2,2.2-0.2,2.9c0,0.7-0.1,1.4-0.3,2.1 c-0.3,0.9-0.7,1.4-1.3,1.4c-1,0-1.4-1.4-1.4-4.3c0-1.9,0.3-3.5,0.8-4.9c0.5-1.3,1-1.9,1.6-1.9c0.7,0,1.1,0.7,1.1,2 C96.9,71.7,96.8,72.7,96.7,73.9z M132.1,74.6c0,0.5,0,0.8,0,0.9c0,1-0.1,1.9-0.4,2.8c-0.4,1.2-0.9,1.9-1.6,1.9c-1,0-1.4-1.4-1.4-4.3 c0-1.6,0.3-3.1,0.9-4.5c0.5-1.3,1.1-2,1.6-2c0.7,0,1,1.3,1,3.9C132.1,73.7,132.1,74.1,132.1,74.6z"></path> </svg> 